<?xml version="1.0" encoding="UTF-8"?>
<svg version="1.1" xmlns="http://www.w3.org/2000/svg" width="403" height="326">
<path d="M0 0 C4.03783038 2.33264058 7.18653 4.54323094 8.82421875 9.046875 C9.82838 14.99196605 8.87875705 19.25795918 5.4140625 24.171875 C3.267145 26.70386616 0.88696554 28.75990705 -1.671875 30.8671875 C-5.62091414 34.30488459 -9.23984686 38.06845585 -12.90014648 41.80908203 C-16.50444668 45.46526114 -20.23636082 48.88915559 -24.12255859 52.24316406 C-27.67598629 55.36477212 -31.06812151 58.6558899 -34.48828125 61.921875 C-40.08693444 67.23304295 -45.73386848 72.32116863 -51.78515625 77.11328125 C-54.09759287 78.9836344 -56.25425337 80.9535943 -58.42578125 82.984375 C-69.53733834 92.86131463 -81.95036581 99.12651221 -95.52954102 104.89306641 C-98.49183522 106.18468025 -101.41136371 107.5548668 -104.3359375 108.9296875 C-110.97092016 112.00543012 -117.70679207 114.76386708 -124.5222168 117.40673828 C-126.48044594 118.16882572 -128.43248934 118.94546762 -130.38476562 119.72265625 C-142.70471214 124.5574325 -155.77530945 129.30255611 -169.17578125 128.046875 C-170.10777344 127.964375 -171.03976563 127.881875 -172 127.796875 C-184.85912345 126.21624011 -197.3492914 121.92883793 -209.640625 117.98046875 C-238.63866227 108.70331481 -266.16437618 104.30917132 -294.84765625 117.25 C-299.68667241 119.86261436 -303.99521711 123.02033409 -308.3359375 126.38671875 C-311.17578125 128.046875 -311.17578125 128.046875 -313.83203125 128.04296875 C-321.22306647 124.90177878 -326.07796963 114.03933418 -329.17578125 107.046875 C-335.32049678 90.35438344 -335.79614017 70.34298285 -332.6015625 52.9140625 C-330.54685781 48.78213581 -327.5864929 47.31561841 -323.67578125 45.046875 C-317.16452143 41.06518436 -311.08185493 36.80317341 -305.11328125 32.046875 C-285.32556373 16.41063553 -265.0523232 1.64461542 -238.50170898 4.31591797 C-230.72250308 5.47027389 -223.69081128 7.79072483 -216.36499023 10.61346436 C-213.05623351 11.88616724 -209.73209355 13.11767748 -206.41015625 14.35546875 C-205.76763916 14.59589905 -205.12512207 14.83632935 -204.46313477 15.08404541 C-184.21096973 22.65059282 -163.38418841 26.8985178 -142.07348633 30.25976562 C-126.67938504 32.76097589 -126.67938504 32.76097589 -121.30078125 37.671875 C-118.36162553 42.33994584 -116.73874829 46.61928795 -117.44921875 52.19140625 C-118.8667773 57.00558238 -121.54973168 59.91524711 -125.56689453 62.80102539 C-130.95596315 65.37452503 -136.82551622 64.8292162 -142.67578125 64.671875 C-144.02611966 64.65323614 -145.37646152 64.63484536 -146.72680664 64.61669922 C-156.39955218 64.41524312 -165.02824974 63.17599314 -174.17578125 60.046875 C-179.38426786 58.34260556 -183.88055342 57.70875956 -189.30078125 57.734375 C-189.99042969 57.71826172 -190.68007812 57.70214844 -191.390625 57.68554688 C-195.82342177 57.68130902 -198.69778562 58.25147664 -202.17578125 61.046875 C-203.53559006 64.12248746 -203.53559006 64.12248746 -204.17578125 67.046875 C-203.19025269 67.12035156 -203.19025269 67.12035156 -202.18481445 67.1953125 C-195.15747905 67.76993293 -188.30064686 68.80935962 -181.36328125 70.046875 C-158.71032082 73.89116027 -138.04701731 73.45855136 -116.17578125 66.046875 C-115.43763184 65.79808594 -114.69948242 65.54929687 -113.93896484 65.29296875 C-96.88442169 59.40469447 -81.74844625 50.59762874 -67.17578125 40.046875 C-65.97935499 39.21010453 -64.78138726 38.37553453 -63.58203125 37.54296875 C-57.5431537 33.3305659 -51.85949948 29.02498347 -46.4296875 24.03515625 C-42.43532307 20.51153148 -38.13908692 17.39168693 -33.83642578 14.25732422 C-32.68917078 13.42108631 -31.5444678 12.58133998 -30.40185547 11.73876953 C-9.07964671 -3.97743949 -9.07964671 -3.97743949 0 0 Z " fill="#7D9456" transform="translate(371.17578125,132.953125)"/>
<path d="M0 0 C5.47642289 2.91933827 10.06797042 6.32992017 14.8125 10.3125 C16.23280418 11.47717864 17.6546729 12.63995206 19.078125 13.80078125 C19.75681641 14.35459473 20.43550781 14.9084082 21.13476562 15.47900391 C21.75029297 15.98093262 22.36582031 16.48286133 23 17 C23.90234375 17.73605469 24.8046875 18.47210938 25.734375 19.23046875 C39.04360999 29.34638058 55.79343237 31.22897942 72 30 C76.57439732 29.12153365 80.70882017 27.79426525 85 26 C85.69609375 25.73445313 86.3921875 25.46890625 87.109375 25.1953125 C95.45575884 21.57394761 102.73775324 14.82760949 109.5859375 8.9375 C110.16835205 8.43677979 110.7507666 7.93605957 111.35083008 7.42016602 C112.4691084 6.45150188 113.5812461 5.4756904 114.6862793 4.49194336 C120.04299273 -0.17868855 120.04299273 -0.17868855 123 0 C127.55580967 3.15402208 130.73759325 6.85030455 133.875 11.375 C134.47828125 12.18324219 134.47828125 12.18324219 135.09375 13.0078125 C137.95782542 17.09934881 138.82778013 20.06733756 138 25 C135.875 27.61328125 135.875 27.61328125 133 30 C132.05125 30.83917969 131.1025 31.67835937 130.125 32.54296875 C129.08599269 33.42761211 128.04421044 34.30900434 127 35.1875 C126.43966064 35.6609082 125.87932129 36.13431641 125.30200195 36.62207031 C120.81843562 40.37994022 116.2151999 43.96060939 111.54956055 47.48852539 C107.68710615 50.42261362 104.04022135 53.51936602 100.48828125 56.8203125 C99 58 99 58 97 58 C94.87425214 62.10977919 93.87465099 65.44055061 93.71875 70.0703125 C93.68136719 71.04871094 93.64398438 72.02710938 93.60546875 73.03515625 C93.53488989 75.10285551 93.46457939 77.17056394 93.39453125 79.23828125 C93.35714844 80.21410156 93.31976563 81.18992187 93.28125 82.1953125 C93.25095703 83.09266113 93.22066406 83.99000977 93.18945312 84.91455078 C93 87 93 87 92 88 C85.88872143 88.40635419 80.30548008 87.21122065 74.3515625 85.91796875 C73.33959808 85.70312332 72.32763367 85.48827789 71.28500366 85.266922 C69.15118139 84.8121617 67.01810384 84.35389459 64.88574219 83.89233398 C61.6444891 83.19171272 58.40065827 82.50420326 55.15625 81.81835938 C53.07535354 81.37317707 50.99461879 80.92723812 48.9140625 80.48046875 C47.47457748 80.17558784 47.47457748 80.17558784 46.00601196 79.86454773 C40.19178287 78.59754028 34.60128089 77.01090287 29 75 C28.98582031 74.13117188 28.97164062 73.26234375 28.95703125 72.3671875 C28.87571914 64.15084335 28.87571914 64.15084335 24.75390625 57.3671875 C21.60868926 54.91545933 18.41024071 52.55801894 15.15234375 50.2578125 C4.45412966 42.59539894 -6.68270267 34.31729733 -16 25 C-16.92095295 18.92543152 -14.19172644 15.51912476 -10.8125 10.8125 C-10.08836914 9.74612305 -10.08836914 9.74612305 -9.34960938 8.65820312 C-6.64112075 4.79360794 -4.37364027 2.07088269 0 0 Z " fill="#79A598" transform="translate(152,69)"/>
<path d="M0 0 C5.92008555 5.22962201 9.14055709 12.45446924 10.44140625 20.1796875 C10.8485544 28.79765667 7.68731519 35.86569503 2.24609375 42.41015625 C-2.71715267 47.66099265 -8.70412312 51.19802672 -16.04296875 51.7734375 C-26.60845574 51.99211316 -33.68689566 50.3366776 -41.5078125 43.09375 C-47.07006041 37.29913665 -49.55428823 30.51748726 -50.44140625 22.66015625 C-50.04878974 14.44792751 -46.56154076 7.12204461 -40.921875 1.25390625 C-28.45592922 -9.91720606 -13.42277214 -9.81196794 0 0 Z " fill="#79A598" transform="translate(233.00390625,33.46484375)"/>
<path d="M0 0 C0.70125 0.5775 1.4025 1.155 2.125 1.75 C2.125 3.07 2.125 4.39 2.125 5.75 C4.55172567 7.53969026 4.55172567 7.53969026 7.125 8.75 C6.98046875 11.0234375 6.98046875 11.0234375 6.125 13.75 C3.67578125 15.6015625 3.67578125 15.6015625 0.4375 17.375 C-6.66735837 21.44455181 -12.92331034 26.29251817 -19.26757812 31.44677734 C-21.60043731 33.33815072 -23.95870051 35.19729222 -26.3125 37.0625 C-29.23002168 39.39363347 -32.07294298 41.78165819 -34.875 44.25 C-37.875 46.75 -37.875 46.75 -39.875 46.75 C-40.205 47.74 -40.535 48.73 -40.875 49.75 C-42.82105905 51.4289529 -44.75262968 52.97379437 -46.8125 54.5 C-47.39789551 54.94029541 -47.98329102 55.38059082 -48.58642578 55.83422852 C-50.34268172 57.14866959 -52.10743946 58.45081512 -53.875 59.75 C-54.81214844 60.44480469 -55.74929688 61.13960937 -56.71484375 61.85546875 C-62.42236298 65.98000884 -68.60175747 70.34593097 -75.875 70.75 C-77.75 69.5625 -77.75 69.5625 -78.875 67.75 C-78.59632333 65.27813796 -78.23496408 64.08870872 -76.40722656 62.36889648 C-75.78299805 61.95712158 -75.15876953 61.54534668 -74.515625 61.12109375 C-73.81840332 60.64905518 -73.12118164 60.1770166 -72.40283203 59.69067383 C-71.27530518 58.94660278 -71.27530518 58.94660278 -70.125 58.1875 C-63.35679941 53.574366 -57.03991632 48.71028176 -50.86328125 43.33984375 C-48.01665549 40.87276809 -45.11872585 38.49047876 -42.1875 36.125 C-38.61242943 33.21928227 -35.15360435 30.22967453 -31.75 27.125 C-24.91385378 20.91622163 -17.82782982 15.45235441 -9.875 10.75 C-13.89236002 12.16189827 -16.96548931 14.08702154 -20.375 16.625 C-21.2928125 17.30304688 -22.210625 17.98109375 -23.15625 18.6796875 C-24.99929943 20.08315905 -26.81158448 21.52779573 -28.59375 23.0078125 C-30.875 24.75 -30.875 24.75 -32.875 24.75 C-33.37 26.235 -33.37 26.235 -33.875 27.75 C-35.921875 29.40625 -35.921875 29.40625 -38.625 31.25 C-43.07851793 34.38823025 -47.25446718 37.68833981 -51.375 41.25 C-58.92557562 47.73902062 -66.81293604 54.49637814 -75.875 58.75 C-78.3125 58.5 -78.3125 58.5 -79.875 57.75 C-80.205 55.11 -80.535 52.47 -80.875 49.75 C-80.23175781 49.28851563 -79.58851563 48.82703125 -78.92578125 48.3515625 C-67.10959834 39.8223349 -55.67795794 30.83827135 -44.328125 21.69921875 C-43.51859375 21.05597656 -42.7090625 20.41273438 -41.875 19.75 C-41.153125 19.1725 -40.43125 18.595 -39.6875 18 C-37.875 16.75 -37.875 16.75 -35.875 16.75 C-35.875 16.09 -35.875 15.43 -35.875 14.75 C-34.30200195 13.46899414 -34.30200195 13.46899414 -32.11328125 12.03515625 C-31.32373047 11.51373047 -30.53417969 10.99230469 -29.72070312 10.45507812 C-28.88474609 9.91302734 -28.04878906 9.37097656 -27.1875 8.8125 C-25.96256836 8.00522461 -25.96256836 8.00522461 -24.71289062 7.18164062 C-8.28871551 -3.60378935 -8.28871551 -3.60378935 0 0 Z " fill="#81935A" transform="translate(343.875,120.25)"/>
<path d="M0 0 C1.125 1.75 1.125 1.75 0.8125 4.4375 C0.585625 5.200625 0.35875 5.96375 0.125 6.75 C-1.195 6.75 -2.515 6.75 -3.875 6.75 C-3.875 7.74 -3.875 8.73 -3.875 9.75 C-4.82512124 11.77417134 -5.82491347 13.77583732 -6.875 15.75 C-7.205 16.41 -7.535 17.07 -7.875 17.75 C-8.535 17.75 -9.195 17.75 -9.875 17.75 C-9.875 16.76 -9.875 15.77 -9.875 14.75 C-11.525 15.08 -13.175 15.41 -14.875 15.75 C-14.875 16.74 -14.875 17.73 -14.875 18.75 C-16.855 19.08 -18.835 19.41 -20.875 19.75 C-17.40066654 15.94994778 -13.96260669 13.44705507 -9.44921875 10.9609375 C-8.92972656 10.56132812 -8.41023438 10.16171875 -7.875 9.75 C-7.875 8.76 -7.875 7.77 -7.875 6.75 C-8.865 6.75 -9.855 6.75 -10.875 6.75 C-11.205 5.43 -11.535 4.11 -11.875 2.75 C-12.596875 3.183125 -13.31875 3.61625 -14.0625 4.0625 C-16.66666667 5.625 -19.27083333 7.1875 -21.875 8.75 C-21.875 7.76 -21.875 6.77 -21.875 5.75 C-19.609375 3.9609375 -19.609375 3.9609375 -16.625 2.125 C-15.65046875 1.51398438 -14.6759375 0.90296875 -13.671875 0.2734375 C-8.85168159 -2.35208685 -4.82270117 -3.21513411 0 0 Z " fill="#899B55" transform="translate(341.875,121.25)"/>
<path d="M0 0 C3.10309727 2.31456732 5.21296506 5.01079371 7.42578125 8.13671875 C8.03583008 8.97493164 8.03583008 8.97493164 8.65820312 9.83007812 C9.65141989 11.1972118 10.63351059 12.57241685 11.61328125 13.94921875 C11.28328125 14.60921875 10.95328125 15.26921875 10.61328125 15.94921875 C8.75 15.76171875 8.75 15.76171875 6.61328125 14.94921875 C5.3828125 12.69921875 5.3828125 12.69921875 4.42578125 9.94921875 C3.45282955 6.68819905 3.45282955 6.68819905 1.61328125 3.94921875 C-0.80255628 3.61547598 -0.80255628 3.61547598 -3.38671875 3.94921875 C-3.83917969 4.41457031 -4.29164063 4.87992187 -4.7578125 5.359375 C-6.74687083 7.30073409 -8.43031578 7.83205263 -11.07421875 8.63671875 C-11.88246094 8.88808594 -12.69070313 9.13945313 -13.5234375 9.3984375 C-14.13832031 9.58019531 -14.75320313 9.76195313 -15.38671875 9.94921875 C-5.53438122 -2.436577 -5.53438122 -2.436577 0 0 Z " fill="#85A594" transform="translate(276.38671875,70.05078125)"/>
<path d="M0 0 C0 0.99 0 1.98 0 3 C-1.98 3.99 -1.98 3.99 -4 5 C-4 5.66 -4 6.32 -4 7 C-4.66 7.66 -5.32 8.32 -6 9 C-6.69937532 10.31647119 -7.36729133 11.65022151 -8 13 C-8.33 13.66 -8.66 14.32 -9 15 C-9.66 15 -10.32 15 -11 15 C-11.99 17.475 -11.99 17.475 -13 20 C-12.34 20.33 -11.68 20.66 -11 21 C-11.66 21.99 -12.32 22.98 -13 24 C-11.35 25.65 -9.7 27.3 -8 29 C-8.33 29.66 -8.66 30.32 -9 31 C-10.18383117 30.14836635 -11.3466469 29.26747562 -12.5 28.375 C-13.1496875 27.88773438 -13.799375 27.40046875 -14.46875 26.8984375 C-16 25 -16 25 -16.54296875 22.30078125 C-15.77517859 17.63327994 -13.53670406 14.60680218 -10.8125 10.8125 C-10.08836914 9.74612305 -10.08836914 9.74612305 -9.34960938 8.65820312 C-6.64112075 4.79360794 -4.37364027 2.07088269 0 0 Z " fill="#8AA593" transform="translate(152,69)"/>
<path d="M0 0 C0.66 0 1.32 0 2 0 C2 1.32 2 2.64 2 4 C3.423125 3.9690625 3.423125 3.9690625 4.875 3.9375 C8 4 8 4 10 5 C11.7015625 4.9690625 11.7015625 4.9690625 13.4375 4.9375 C17 5 17 5 20 7 C22.00788847 7.42140869 24.0319825 7.76890148 26.0625 8.0625 C31.81132075 8.90566038 31.81132075 8.90566038 34 10 C35.49579604 10.20092783 36.99696724 10.36336066 38.5 10.5 C42.77777778 10.88888889 42.77777778 10.88888889 45 12 C45 12.66 45 13.32 45 14 C35.3204691 12.52601868 25.80148214 10.49993648 16.25 8.375 C14.76308304 8.0465932 13.27610421 7.71846643 11.7890625 7.390625 C8.19199117 6.59696823 4.59576525 5.79955605 1 5 C0.67 3.35 0.34 1.7 0 0 Z " fill="#8CA493" transform="translate(181,140)"/>
<path d="M0 0 C0.886875 0.10699219 1.77375 0.21398437 2.6875 0.32421875 C4.0178125 0.47310547 4.0178125 0.47310547 5.375 0.625 C7.6875 1.01171875 7.6875 1.01171875 9.6875 2.01171875 C12.24831642 2.24530673 14.80755034 2.39334944 17.375 2.53515625 C19.6875 3.01171875 19.6875 3.01171875 21.6875 6.01171875 C23.01270503 6.69440013 24.34562182 7.36242285 25.6875 8.01171875 C26.0175 8.67171875 26.3475 9.33171875 26.6875 10.01171875 C26.12546875 9.85316406 25.5634375 9.69460937 24.984375 9.53125 C15.26755663 6.83378969 5.47534856 4.435308 -4.3125 2.01171875 C-2.3125 0.01171875 -2.3125 0.01171875 0 0 Z " fill="#869261" transform="translate(137.3125,240.98828125)"/>
<path d="M0 0 C1.485 0.99 1.485 0.99 3 2 C-1.06886656 4.90825004 -3.86989156 5.35854769 -8.83203125 5.29296875 C-10.12431641 5.28330078 -11.41660156 5.27363281 -12.74804688 5.26367188 C-14.1028707 5.23860985 -15.45768841 5.21321506 -16.8125 5.1875 C-18.18683445 5.17244013 -19.56118468 5.15875401 -20.93554688 5.14648438 C-24.29076632 5.11116628 -27.64518166 5.06183851 -31 5 C-30.34 4.01 -29.68 3.02 -29 2 C-26.3984375 1.70703125 -26.3984375 1.70703125 -23.375 1.8125 C-21.87066406 1.85310547 -21.87066406 1.85310547 -20.3359375 1.89453125 C-19.56507813 1.92933594 -18.79421875 1.96414062 -18 2 C-18 2.66 -18 3.32 -18 4 C-15.69 4 -13.38 4 -11 4 C-10.67 3.34 -10.34 2.68 -10 2 C-6.7 2 -3.4 2 0 2 C0 1.34 0 0.68 0 0 Z " fill="#889664" transform="translate(245,192)"/>
<path d="M0 0 C0.33 1.32 0.66 2.64 1 4 C-0.875 5.0625 -0.875 5.0625 -3 6 C-3.66 5.67 -4.32 5.34 -5 5 C-5.33 6.98 -5.66 8.96 -6 11 C-8.31 11.33 -10.62 11.66 -13 12 C-13.33 13.32 -13.66 14.64 -14 16 C-15.29283435 12.12149695 -14.7509487 10.6541538 -13 7 C-9.7683054 4.93721621 -7.84323789 4 -4 4 C-3.67 3.01 -3.34 2.02 -3 1 C-2.01 0.67 -1.02 0.34 0 0 Z " fill="#799256" transform="translate(301,146)"/>
<path d="M0 0 C0.66 1.32 1.32 2.64 2 4 C1.236875 3.95875 0.47375 3.9175 -0.3125 3.875 C-3.22718416 3.77919176 -3.22718416 3.77919176 -6 6 C-6.969375 6.12375 -7.93875 6.2475 -8.9375 6.375 C-12.5351298 7.10921016 -13.59209436 8.33410447 -16 11 C-16.66 11 -17.32 11 -18 11 C-18 11.66 -18 12.32 -18 13 C-19.65 13.33 -21.3 13.66 -23 14 C-23 12.68 -23 11.36 -23 10 C-20.29363164 8.70407751 -17.5850566 7.41316835 -14.875 6.125 C-14.11445312 5.76019531 -13.35390625 5.39539063 -12.5703125 5.01953125 C-8.44138513 3.06185017 -4.38453786 1.33077028 0 0 Z " fill="#89965C" transform="translate(112,138)"/>
<path d="M0 0 C0.66 0.33 1.32 0.66 2 1 C1.375 2.875 1.375 2.875 0 5 C-0.99 5.309375 -1.98 5.61875 -3 5.9375 C-3.99 6.288125 -4.98 6.63875 -6 7 C-6.72159424 8.64363134 -7.39351421 10.31050386 -8 12 C-9.875 12.6875 -9.875 12.6875 -12 13 C-12.70125 13.37125 -13.4025 13.7425 -14.125 14.125 C-14.74375 14.41375 -15.3625 14.7025 -16 15 C-16.66 14.67 -17.32 14.34 -18 14 C-18.33 14.66 -18.66 15.32 -19 16 C-19.66 15.34 -20.32 14.68 -21 14 C-19.98679688 13.40832031 -18.97359375 12.81664062 -17.9296875 12.20703125 C-16.57795872 11.40913579 -15.22640555 10.61094279 -13.875 9.8125 C-13.20984375 9.42513672 -12.5446875 9.03777344 -11.859375 8.63867188 C-7.54881481 6.08191804 -3.76917642 3.3053681 0 0 Z " fill="#86915F" transform="translate(62,168)"/>
<path d="M0 0 C1.25312512 3.75937536 0.50868401 4.42680103 -1 8 C-3.75446634 17.18155447 -3.86126929 24.15125787 0 33 C-0.66 33 -1.32 33 -2 33 C-6.42100442 22.26327498 -7.21492109 16.30140391 -3.0703125 5.41796875 C-2 3 -2 3 0 0 Z " fill="#93AA9D" transform="translate(189,38)"/>
<path d="M0 0 C0.66 0 1.32 0 2 0 C1.38722388 2.96175123 0.74627478 4.38058783 -1 7 C-3.30144109 8.07136051 -5.6340213 9.07989717 -8 10 C-8 10.66 -8 11.32 -8 12 C-13.75 15 -13.75 15 -16 15 C-14.6486843 10.9460529 -11.87905033 9.37436639 -8.5625 6.9375 C-4.10953757 3.67371543 -4.10953757 3.67371543 0 0 Z " fill="#8B9363" transform="translate(298,143)"/>
<path d="M0 0 C0 0.66 0 1.32 0 2 C-2.74928442 2.50423557 -5.49931143 3.00353426 -8.25 3.5 C-9.02730469 3.64308594 -9.80460938 3.78617188 -10.60546875 3.93359375 C-11.35957031 4.06894531 -12.11367187 4.20429688 -12.890625 4.34375 C-13.58188477 4.46943359 -14.27314453 4.59511719 -14.98535156 4.72460938 C-17 5 -17 5 -21 5 C-21 4.34 -21 3.68 -21 3 C-21.66 2.67 -22.32 2.34 -23 2 C-19.73094303 1.46757884 -16.45956659 0.95107317 -13.1875 0.4375 C-12.25873047 0.28603516 -11.32996094 0.13457031 -10.37304688 -0.02148438 C-9.48037109 -0.16005859 -8.58769531 -0.29863281 -7.66796875 -0.44140625 C-6.84578857 -0.57232666 -6.0236084 -0.70324707 -5.17651367 -0.83813477 C-3 -1 -3 -1 0 0 Z " fill="#879163" transform="translate(245,204)"/>
<path d="M0 0 C0 0.66 0 1.32 0 2 C-1.98 2 -3.96 2 -6 2 C-6 2.66 -6 3.32 -6 4 C-7.546875 4.0928125 -7.546875 4.0928125 -9.125 4.1875 C-13.88462827 5.18548657 -15.53592963 6.70490867 -19 10 C-19.66 9.34 -20.32 8.68 -21 8 C-7.27970297 -2.14108911 -7.27970297 -2.14108911 0 0 Z " fill="#8F995E" transform="translate(340,120)"/>
<path d="M0 0 C0 0.66 0 1.32 0 2 C-1.32 2 -2.64 2 -4 2 C-4.33 2.66 -4.66 3.32 -5 4 C-5.94875 4.309375 -6.8975 4.61875 -7.875 4.9375 C-10.94574508 5.72482017 -10.94574508 5.72482017 -12.5 7.5 C-14.66475544 9.66475544 -17.10574036 10.16388055 -20 11 C-15.29212255 4.25204232 -8.50687191 -0.51648865 0 0 Z " fill="#87A290" transform="translate(210,27)"/>
<path d="M0 0 C3.58331625 -0.02907084 7.16660208 -0.04682263 10.75 -0.0625 C11.76578125 -0.07087891 12.7815625 -0.07925781 13.828125 -0.08789062 C14.8078125 -0.09111328 15.7875 -0.09433594 16.796875 -0.09765625 C17.69760742 -0.10289307 18.59833984 -0.10812988 19.52636719 -0.11352539 C21.83389804 -0.00762312 23.79134405 0.34867187 26 1 C26 1.66 26 2.32 26 3 C17.09 2.67 8.18 2.34 -1 2 C-0.67 1.34 -0.34 0.68 0 0 Z " fill="#8B9A65" transform="translate(104,239)"/>
<path d="M0 0 C0.33 0 0.66 0 1 0 C1.02688151 1.64574566 1.04634123 3.29161413 1.0625 4.9375 C1.07410156 5.85402344 1.08570313 6.77054688 1.09765625 7.71484375 C1 10 1 10 0 11 C-5.61776997 11.35111062 -10.56578866 10.38011717 -16 9 C-15.67 8.01 -15.34 7.02 -15 6 C-10.125 6.875 -10.125 6.875 -9 8 C-7.48071962 8.07179964 -5.95832518 8.08392007 -4.4375 8.0625 C-3.61121094 8.05347656 -2.78492188 8.04445312 -1.93359375 8.03515625 C-1.29550781 8.02355469 -0.65742188 8.01195312 0 8 C0 5.36 0 2.72 0 0 Z " fill="#89A796" transform="translate(244,146)"/>
<path d="M0 0 C0.66 0 1.32 0 2 0 C0.94945786 7.17659511 -3.62856523 13.24834617 -9 18 C-9.66 17.67 -10.32 17.34 -11 17 C-9.7260411 14.96166576 -8.38938077 12.96147874 -7 11 C-6.34 11 -5.68 11 -5 11 C-5 10.34 -5 9.68 -5 9 C-4.34 9 -3.68 9 -3 9 C-2.67 6.69 -2.34 4.38 -2 2 C-1.34 2 -0.68 2 0 2 C0 1.34 0 0.68 0 0 Z " fill="#819E8F" transform="translate(240,62)"/>
<path d="M0 0 C9.405 1.485 9.405 1.485 19 3 C19 3.66 19 4.32 19 5 C15.59584738 6.13471754 13.46827809 5.77072847 10 5 C7.00463905 4.62179786 4.00336796 4.30753441 1 4 C0.67 2.68 0.34 1.36 0 0 Z " fill="#899567" transform="translate(208,160)"/>
<path d="M0 0 C4.43481736 2.24497859 6.99298805 5.20452888 9.8125 9.1875 C10.21919922 9.74630859 10.62589844 10.30511719 11.04492188 10.88085938 C12.03813864 12.24799305 13.02022934 13.6231981 14 15 C13.67 15.66 13.34 16.32 13 17 C11.12109375 16.80078125 11.12109375 16.80078125 9 16 C7.91015625 13.85546875 7.91015625 13.85546875 7.0625 11.1875 C5.47881156 6.7645295 3.98460284 4.65640189 0 2 C0 1.34 0 0.68 0 0 Z " fill="#839785" transform="translate(274,69)"/>
<path d="M0 0 C0.66 0.33 1.32 0.66 2 1 C3.76867455 1.09683564 5.54118303 1.12979382 7.3125 1.125 C8.25738281 1.12757813 9.20226562 1.13015625 10.17578125 1.1328125 C12.99339273 1.07714501 12.99339273 1.07714501 15.66796875 0.4296875 C18 0 18 0 21 1 C20.67 1.99 20.34 2.98 20 4 C16.54173658 4.05789006 13.08359707 4.09355821 9.625 4.125 C8.64015625 4.14175781 7.6553125 4.15851563 6.640625 4.17578125 C5.69960937 4.18222656 4.75859375 4.18867188 3.7890625 4.1953125 C2.48509521 4.21102295 2.48509521 4.21102295 1.15478516 4.22705078 C-1 4 -1 4 -3 2 C-2.01 1.34 -1.02 0.68 0 0 Z " fill="#869763" transform="translate(174,187)"/>
<path d="M0 0 C6.25194565 4.75652349 11.34941895 10.09828221 13 18 C12.34 18 11.68 18 11 18 C10.34 16.35 9.68 14.7 9 13 C8.34 13 7.68 13 7 13 C6.731875 12.236875 6.46375 11.47375 6.1875 10.6875 C5.20337255 8.02287549 5.20337255 8.02287549 3.5 6.5 C1.5653616 4.5653616 0.89782228 2.55534033 0 0 Z " fill="#829E8E" transform="translate(229,31)"/>
<path d="M0 0 C0 2 0 4 0 6 C-3 8 -3 8 -6 8 C-6.66 9.32 -7.32 10.64 -8 12 C-8.99 12 -9.98 12 -11 12 C-11 11.01 -11 10.02 -11 9 C-8.84765625 6.9921875 -8.84765625 6.9921875 -6.0625 4.875 C-5.14597656 4.17117187 -4.22945313 3.46734375 -3.28515625 2.7421875 C-2.53105469 2.16726562 -1.77695312 1.59234375 -1 1 C-0.67 0.67 -0.34 0.34 0 0 Z " fill="#8C985B" transform="translate(291,165)"/>
<path d="M0 0 C0.33 0.66 0.66 1.32 1 2 C3.02463255 2.65213292 3.02463255 2.65213292 5 3 C5 3.33 5 3.66 5 4 C3.25034642 4.05429959 1.50020213 4.09292823 -0.25 4.125 C-1.22453125 4.14820313 -2.1990625 4.17140625 -3.203125 4.1953125 C-6.0196498 3.99862781 -7.60949036 3.44568916 -10 2 C-10 1.67 -10 1.34 -10 1 C-6.7 0.67 -3.4 0.34 0 0 Z " fill="#98A351" transform="translate(208,257)"/>
<path d="M0 0 C0 0.99 0 1.98 0 3 C-0.66 3 -1.32 3 -2 3 C-1.67 3.99 -1.34 4.98 -1 6 C-3.97 7.65 -6.94 9.3 -10 11 C-10.66 10.34 -11.32 9.68 -12 9 C-10.56351736 7.87370125 -9.12577415 6.7490101 -7.6875 5.625 C-6.88699219 4.99851563 -6.08648437 4.37203125 -5.26171875 3.7265625 C-3.55336788 2.42243282 -1.78827274 1.19218183 0 0 Z " fill="#85905F" transform="translate(343,143)"/>
<path d="M0 0 C0.763125 0.20625 1.52625 0.4125 2.3125 0.625 C-2.91281563 4.10854375 -8.5006337 4.93434332 -14.6875 4.625 C-15.0175 3.965 -15.3475 3.305 -15.6875 2.625 C-13.3775 2.625 -11.0675 2.625 -8.6875 2.625 C-8.3575 1.965 -8.0275 1.305 -7.6875 0.625 C-7.0275 0.955 -6.3675 1.285 -5.6875 1.625 C-2.6875 -0.375 -2.6875 -0.375 0 0 Z " fill="#8B9662" transform="translate(226.6875,255.375)"/>
<path d="M0 0 C-0.33 0.99 -0.66 1.98 -1 3 C-1.93972656 3.09087891 -1.93972656 3.09087891 -2.8984375 3.18359375 C-3.71570313 3.26738281 -4.53296875 3.35117188 -5.375 3.4375 C-6.18710938 3.51871094 -6.99921875 3.59992188 -7.8359375 3.68359375 C-10.04272805 3.89090114 -10.04272805 3.89090114 -12 5 C-14.125 4.0625 -14.125 4.0625 -16 3 C-13.89936424 2.30178583 -11.79434263 1.61675528 -9.6875 0.9375 C-8.51574219 0.55464844 -7.34398437 0.17179687 -6.13671875 -0.22265625 C-3 -1 -3 -1 0 0 Z " fill="#809C8C" transform="translate(240,96)"/>
<path d="M0 0 C2.64 0.66 5.28 1.32 8 2 C5.47211993 4.79872437 3.79588866 6.45773019 0 7 C-1.125 2.25 -1.125 2.25 0 0 Z " fill="#8A9955" transform="translate(273,168)"/>
<path d="M0 0 C0.66 0.66 1.32 1.32 2 2 C1.67 2.99 1.34 3.98 1 5 C0.77820215 6.89212737 0.59385985 8.78884472 0.4375 10.6875 C0.31181641 12.17830078 0.31181641 12.17830078 0.18359375 13.69921875 C0.12300781 14.45847656 0.06242188 15.21773437 0 16 C-2.49505962 13.50494038 -2.35948376 12.32671112 -2.625 8.875 C-2.69976562 7.96492187 -2.77453125 7.05484375 -2.8515625 6.1171875 C-2.92503906 5.06917969 -2.92503906 5.06917969 -3 4 C-2.01 3.67 -1.02 3.34 0 3 C0 2.01 0 1.02 0 0 Z " fill="#83A28E" transform="translate(245,129)"/>
<path d="M0 0 C3.375 -0.1875 3.375 -0.1875 7 0 C7.66 0.99 8.32 1.98 9 3 C10.32520503 3.68268138 11.65812182 4.3507041 13 5 C13.33 5.66 13.66 6.32 14 7 C8.547001 5.43181728 4.23513217 3.96189783 0 0 Z " fill="#96A359" transform="translate(150,244)"/>
<path d="M0 0 C0 0.66 0 1.32 0 2 C1.65 1.67 3.3 1.34 5 1 C5 1.99 5 2.98 5 4 C-3.57142857 3.28571429 -3.57142857 3.28571429 -7 0 C-3.86650268 -1.04449911 -3.01031744 -0.93423645 0 0 Z " fill="#889461" transform="translate(171,250)"/>
<path d="M0 0 C0 0.66 0 1.32 0 2 C0.66 2.33 1.32 2.66 2 3 C2 3.99 2 4.98 2 6 C2.66 6.33 3.32 6.66 4 7 C3.01 8.485 3.01 8.485 2 10 C1.4225 9.0925 0.845 8.185 0.25 7.25 C-1.66785116 4.47977054 -3.54402845 2.28054501 -6 0 C-2.25 -1.125 -2.25 -1.125 0 0 Z " fill="#8AA596" transform="translate(179,123)"/>
<path d="M0 0 C0.33 1.32 0.66 2.64 1 4 C-4.2734375 7.22265625 -4.2734375 7.22265625 -6 8 C-6.66 7.67 -7.32 7.34 -8 7 C-5.36 4.69 -2.72 2.38 0 0 Z M-10 8 C-9.34 8.33 -8.68 8.66 -8 9 C-8.33 9.66 -8.66 10.32 -9 11 C-9.99 10.67 -10.98 10.34 -12 10 C-11.34 9.34 -10.68 8.68 -10 8 Z " fill="#828C5B" transform="translate(321,160)"/>
<path d="M0 0 C-6.06315789 5.05263158 -6.06315789 5.05263158 -9 6 C-11.12109375 5.0390625 -11.12109375 5.0390625 -13 4 C-4.738041 -0.59225513 -4.738041 -0.59225513 0 0 Z " fill="#88915E" transform="translate(366,132)"/>
<path d="M0 0 C0.66 0 1.32 0 2 0 C2 0.66 2 1.32 2 2 C3.98 2 5.96 2 8 2 C7.67 2.99 7.34 3.98 7 5 C0.375 5.25 0.375 5.25 -3 3 C-2.01 3 -1.02 3 0 3 C0 2.01 0 1.02 0 0 Z " fill="#82ACA0" transform="translate(210,26)"/>
<path d="M0 0 C0 3.51716303 -0.82445585 4.37121748 -3 7 C-3.99 6.67 -4.98 6.34 -6 6 C-6 6.66 -6 7.32 -6 8 C-7.32 7.34 -8.64 6.68 -10 6 C-6.7 4.02 -3.4 2.04 0 0 Z " fill="#848D60" transform="translate(289,183)"/>
<path d="M0 0 C3.63 0.33 7.26 0.66 11 1 C10.67 1.66 10.34 2.32 10 3 C7.71484375 3.4140625 7.71484375 3.4140625 4.9375 3.625 C3.55884766 3.73714844 3.55884766 3.73714844 2.15234375 3.8515625 C1.44207031 3.90054688 0.73179687 3.94953125 0 4 C0 2.68 0 1.36 0 0 Z " fill="#869562" transform="translate(228,164)"/>
<path d="M0 0 C1 3 1 3 1 7 C0.01 7.33 -0.98 7.66 -2 8 C-2.66 7.34 -3.32 6.68 -4 6 C-3.8125 4 -3.8125 4 -3 2 C-2.01 1.34 -1.02 0.68 0 0 Z " fill="#828F5D" transform="translate(269,182)"/>
<path d="M0 0 C6.625 -0.125 6.625 -0.125 10 1 C8.60804085 3.7839183 6.84424221 3.97898997 4 5 C4.33 4.34 4.66 3.68 5 3 C3.35 2.67 1.7 2.34 0 2 C0 1.34 0 0.68 0 0 Z " fill="#828E62" transform="translate(131,138)"/>
<path d="M0 0 C3.37462715 0.54723683 5.08235 1.0549 8 3 C8 4.32 8 5.64 8 7 C7.01 7.33 6.02 7.66 5 8 C5 6.68 5 5.36 5 4 C4.01 3.67 3.02 3.34 2 3 C2 2.34 2 1.68 2 1 C1.34 0.67 0.68 0.34 0 0 Z " fill="#899168" transform="translate(338,119)"/>
<path d="M0 0 C0 0.66 0 1.32 0 2 C0.99 2.33 1.98 2.66 3 3 C3 3.33 3 3.66 3 4 C-0.49234244 4.09978121 -3.59437148 3.77842938 -7 3 C-6.67 2.01 -6.34 1.02 -6 0 C-3.50907189 -1.24546405 -2.58919267 -0.7767578 0 0 Z " fill="#8A9A5B" transform="translate(145,140)"/>
<path d="M0 0 C0.66 0.66 1.32 1.32 2 2 C-0.52956528 5.0916909 -3.22454612 5.90931332 -7 7 C-6.8125 5.125 -6.8125 5.125 -6 3 C-3.5 1.8125 -3.5 1.8125 -1 1 C-0.67 0.67 -0.34 0.34 0 0 Z " fill="#8B9B5B" transform="translate(85,242)"/>
<path d="M0 0 C-1.375 1.5 -1.375 1.5 -3 3 C-5.7283768 3 -8.31654063 2.46668859 -11 2 C-7.374967 -1.625033 -4.81746234 -1.01907857 0 0 Z " fill="#849461" transform="translate(195,204)"/>
<path d="M0 0 C0.99 0.33 1.98 0.66 3 1 C2.01 2.98 1.02 4.96 0 7 C-0.99 7 -1.98 7 -3 7 C-2.25 2.25 -2.25 2.25 0 0 Z " fill="#869560" transform="translate(167,192)"/>
<path d="M0 0 C0.66 0 1.32 0 2 0 C1.45276317 3.37462715 0.9451 5.08235 -1 8 C-1.66 7.67 -2.32 7.34 -3 7 C-2.67 5.35 -2.34 3.7 -2 2 C-1.34 2 -0.68 2 0 2 C0 1.34 0 0.68 0 0 Z " fill="#88A295" transform="translate(240,62)"/>
<path d="M0 0 C-1 3 -1 3 -3.375 4.1875 C-6 5 -6 5 -9 5 C-9 4.34 -9 3.68 -9 3 C-3.375 0 -3.375 0 0 0 Z " fill="#8D9C5D" transform="translate(241,250)"/>
<path d="M0 0 C2.475 0.495 2.475 0.495 5 1 C4.67 2.98 4.34 4.96 4 7 C3.01 7 2.02 7 1 7 C0.67 4.69 0.34 2.38 0 0 Z " fill="#759750" transform="translate(300,162)"/>
<path d="M0 0 C4.455 0.99 4.455 0.99 9 2 C7 4 7 4 3.875 4.125 C2.451875 4.063125 2.451875 4.063125 1 4 C0.67 2.68 0.34 1.36 0 0 Z " fill="#859567" transform="translate(186,155)"/>
<path d="M0 0 C0.99 0.33 1.98 0.66 3 1 C-1.625 5.875 -1.625 5.875 -5 7 C-4.67 5.68 -4.34 4.36 -4 3 C-2.68 2.67 -1.36 2.34 0 2 C0 1.34 0 0.68 0 0 Z " fill="#87A592" transform="translate(271,106)"/>
<path d="M0 0 C1.875 0.1875 1.875 0.1875 4 1 C5.25 3.5625 5.25 3.5625 6 6 C4.35 5.67 2.7 5.34 1 5 C0.67 3.35 0.34 1.7 0 0 Z " fill="#7F9C8E" transform="translate(282,80)"/>
<path d="M0 0 C0.33 0 0.66 0 1 0 C1.02688151 1.64574566 1.04634123 3.29161413 1.0625 4.9375 C1.07410156 5.85402344 1.08570313 6.77054688 1.09765625 7.71484375 C1 10 1 10 0 11 C-1.99958364 11.04080783 -4.00045254 11.04254356 -6 11 C-4.68 10.67 -3.36 10.34 -2 10 C-2 9.34 -2 8.68 -2 8 C-1.34 8 -0.68 8 0 8 C0 5.36 0 2.72 0 0 Z " fill="#869C89" transform="translate(244,146)"/>
<path d="M0 0 C2.33333333 2.33333333 4.66666667 4.66666667 7 7 C6.67 7.66 6.34 8.32 6 9 C3.69 7.35 1.38 5.7 -1 4 C-0.67 2.68 -0.34 1.36 0 0 Z " fill="#8CA79B" transform="translate(166,114)"/>
<path d="M0 0 C6.93 0.495 6.93 0.495 14 1 C14 1.33 14 1.66 14 2 C12.23186888 2.24915939 10.46025018 2.47366632 8.6875 2.6875 C7.70136719 2.81511719 6.71523437 2.94273438 5.69921875 3.07421875 C3 3 3 3 0 0 Z " fill="#87A48C" transform="translate(200,99)"/>
<path d="M0 0 C2.59937954 2.46941056 4.79020692 5.18060883 7 8 C4 8 4 8 2.61328125 6.6875 C1.40885417 5.125 0.20442708 3.5625 -1 2 C-0.67 1.34 -0.34 0.68 0 0 Z " fill="#86A38F" transform="translate(189,70)"/>
<path d="M0 0 C6.75 -0.125 6.75 -0.125 9 1 C9 1.66 9 2.32 9 3 C4.545 2.01 4.545 2.01 0 1 C0 0.67 0 0.34 0 0 Z " fill="#93AE9F" transform="translate(217,151)"/>
<path d="M0 0 C0.66 0 1.32 0 2 0 C1.38722388 2.96175123 0.74627478 4.38058783 -1 7 C-1.66 6.67 -2.32 6.34 -3 6 C-1.125 1.125 -1.125 1.125 0 0 Z " fill="#8C9A58" transform="translate(298,143)"/>
<path d="M0 0 C0.99 0.33 1.98 0.66 3 1 C0.36 2.98 -2.28 4.96 -5 7 C-3.75023244 3.34683329 -3.32901247 2.21934164 0 0 Z " fill="#8CA790" transform="translate(262,114)"/>
</svg>
